<svg width="45" height="45" viewBox="0 0 45 45" fill="none" xmlns="http://www.w3.org/2000/svg">
<g clip-path="url(#clip0_546_559)">
<path d="M26.7188 8.4375H9.84375C9.0675 8.4375 8.4375 9.0675 8.4375 9.84375C8.4375 10.62 9.0675 11.25 9.84375 11.25H26.7188C27.495 11.25 28.125 10.62 28.125 9.84375C28.125 9.0675 27.495 8.4375 26.7188 8.4375Z" fill="#75B79E"/>
<path d="M21.0938 14.0625H9.84375C9.0675 14.0625 8.4375 14.6925 8.4375 15.4687C8.4375 16.245 9.0675 16.875 9.84375 16.875H21.0938C21.87 16.875 22.5 16.245 22.5 15.4687C22.5 14.6925 21.87 14.0625 21.0938 14.0625Z" fill="#75B79E"/>
<path d="M30.9375 0H5.625C2.52281 0 0 2.52281 0 5.625V33.75C0 34.2956 0.315 34.7934 0.81 35.0241C0.998437 35.1113 1.20375 35.1562 1.40625 35.1562C1.72969 35.1562 2.05031 35.0437 2.30625 34.83L10.3528 28.125H30.9375C34.0397 28.125 36.5625 25.6022 36.5625 22.5V5.625C36.5625 2.52281 34.0397 0 30.9375 0ZM33.75 22.5C33.75 24.0497 32.49 25.3125 30.9375 25.3125H9.84375C9.51469 25.3125 9.19688 25.4278 8.94375 25.6388L2.8125 30.7491V5.625C2.8125 4.07531 4.0725 2.8125 5.625 2.8125H30.9375C32.49 2.8125 33.75 4.07531 33.75 5.625V22.5Z" fill="#75B79E"/>
<path d="M39.375 11.25C38.5988 11.25 37.9688 11.88 37.9688 12.6562C37.9688 13.4325 38.5988 14.0625 39.375 14.0625C40.9275 14.0625 42.1875 15.3253 42.1875 16.875V40.6659L37.44 36.8691C37.1925 36.6722 36.8803 36.5625 36.5625 36.5625H16.875C15.3225 36.5625 14.0625 35.2997 14.0625 33.75V32.3437C14.0625 31.5675 13.4325 30.9375 12.6562 30.9375C11.88 30.9375 11.25 31.5675 11.25 32.3437V33.75C11.25 36.8522 13.7728 39.375 16.875 39.375H36.0675L42.7134 44.6934C42.9694 44.8959 43.2816 45 43.5938 45C43.7991 45 44.0072 44.955 44.2041 44.8622C44.6906 44.6259 45 44.1337 45 43.5937V16.875C45 13.7728 42.4772 11.25 39.375 11.25Z" fill="#75B79E"/>
</g>
<defs>
<clipPath id="clip0_546_559">
<rect width="45" height="45" fill="white"/>
</clipPath>
</defs>
</svg>
