<svg width="45" height="45" viewBox="0 0 45 45" fill="none" xmlns="http://www.w3.org/2000/svg">
<circle cx="22.5" cy="22.5" r="22.5" fill="#75B79E"/>
<path d="M23.4894 22.2079C19.7112 22.0847 18.8051 18.8498 18.6111 17.8055C18.2474 17.7212 17.9233 17.5153 17.6924 17.2219C17.4289 16.8587 17.3066 16.412 17.3485 15.9652C17.3186 15.7244 17.3395 15.4801 17.4099 15.2479C17.4804 15.0158 17.5987 14.801 17.7574 14.6175C17.8469 14.5257 17.9499 14.448 18.0628 14.3871C17.3605 13.2534 17.0147 11.935 17.0699 10.6026C17.5073 7.47746 20.0258 7.17332 20.8146 7.15573C21.1777 6.73346 21.6315 6.39878 22.1422 6.17671C23.0988 5.79086 24.1561 5.73195 25.1496 6.00914C27.1026 6.51897 28.405 7.49673 29.0229 8.9156C29.9027 10.9323 29.131 13.2535 28.6878 14.2958C28.8568 14.3507 29.0126 14.4401 29.1453 14.5584C29.3258 14.7417 29.4618 14.9639 29.5428 15.208C29.6239 15.4522 29.6478 15.7116 29.6128 15.9664C29.6551 16.4132 29.5329 16.86 29.2693 17.2232C29.0381 17.5165 28.714 17.7224 28.3502 17.8067C28.1562 18.8498 27.2522 22.0847 23.4894 22.2079ZM18.7628 15.057C18.6142 15.05 18.4689 15.1018 18.3581 15.2011C18.2814 15.3085 18.2268 15.43 18.1974 15.5586C18.168 15.6873 18.1644 15.8205 18.1868 15.9505C18.1885 15.9785 18.1875 16.0065 18.1838 16.0343C18.1611 16.2747 18.2232 16.5156 18.3594 16.715C18.4443 16.8099 18.5474 16.8869 18.6625 16.9414C18.7776 16.996 18.9024 17.0269 19.0296 17.0326C19.1254 17.0439 19.2144 17.0879 19.2815 17.1572C19.3485 17.2265 19.3897 17.3169 19.3979 17.413C19.4117 17.5688 19.7833 21.249 23.4903 21.3705C27.1768 21.249 27.55 17.5688 27.5638 17.4121C27.5722 17.3162 27.6134 17.226 27.6805 17.1569C27.7476 17.0878 27.8364 17.0439 27.9321 17.0326C28.0593 17.027 28.1842 16.996 28.2993 16.9415C28.4144 16.887 28.5174 16.81 28.6024 16.715C28.7391 16.5146 28.8013 16.2725 28.7779 16.0309C28.7744 16.004 28.7734 15.9768 28.7749 15.9497C28.7976 15.8154 28.7925 15.6778 28.76 15.5456C28.7275 15.4133 28.6683 15.2891 28.586 15.1805C28.4552 15.0842 28.2923 15.0416 28.1311 15.0616C28.0535 15.0753 27.9737 15.0669 27.9007 15.0374C27.8277 15.0079 27.7646 14.9584 27.7184 14.8946C27.6723 14.8307 27.6451 14.7552 27.6399 14.6767C27.6347 14.5981 27.6518 14.5197 27.6891 14.4504C27.7046 14.421 29.2391 11.5087 28.253 9.24529C27.7423 8.07567 26.6276 7.2592 24.9389 6.8185C24.1273 6.58881 23.2626 6.63298 22.4786 6.94417C22.0326 7.13634 21.6438 7.44054 21.35 7.82725C21.3077 7.88478 21.2513 7.93043 21.1862 7.95978C21.1211 7.98913 21.0496 8.0012 20.9784 7.99482C20.8699 7.98602 18.3049 7.82013 17.9027 10.6876C17.9027 10.6876 17.7867 12.9686 19.108 14.3511C19.1655 14.4113 19.2039 14.4873 19.2181 14.5693C19.2322 14.6514 19.2216 14.7359 19.1876 14.8119C19.1562 14.8899 19.1009 14.9558 19.0296 15.0003C18.9583 15.0448 18.8747 15.0655 18.7909 15.0595L18.7628 15.057Z" fill="#EEF9BF"/>
<path d="M28.0583 15.0671C27.9502 15.0672 27.8462 15.0255 27.7681 14.9507C27.6901 14.8759 27.6439 14.7738 27.6394 14.6658C27.6343 14.5573 27.5045 12.0266 25.6152 11.7832C24.751 11.893 23.8735 11.8245 23.0368 11.5822C22.2001 11.3398 21.422 10.9286 20.7503 10.374C20.2161 10.7757 18.9854 11.9969 19.222 14.6013C19.2252 14.7079 19.1875 14.8117 19.1168 14.8915C19.046 14.9713 18.9475 15.0211 18.8413 15.0308C18.7351 15.0404 18.6292 15.0092 18.5452 14.9435C18.4612 14.8778 18.4054 14.7825 18.3892 14.6771C18.0419 10.8561 20.4956 9.52985 20.5999 9.47539C20.6775 9.43487 20.7659 9.4197 20.8526 9.43202C20.9393 9.44435 21.02 9.48354 21.0833 9.54409C21.6804 10.0849 22.3873 10.4904 23.1555 10.7328C23.9238 10.9753 24.7354 11.0489 25.5347 10.9487C25.5731 10.9425 25.6121 10.9411 25.6508 10.9445C27.7806 11.1661 28.4311 13.4543 28.4772 14.631C28.4815 14.7419 28.4417 14.8499 28.3665 14.9314C28.2912 15.0129 28.1867 15.0613 28.0759 15.0659L28.0583 15.0671Z" fill="#EEF9BF"/>
<path d="M35.267 35.1622H11.733C11.6219 35.1622 11.5153 35.1181 11.4368 35.0395C11.3582 34.9609 11.3141 34.8544 11.3141 34.7433V30.0732C11.3171 28.5971 11.9053 27.1825 12.9498 26.1396C13.9942 25.0966 15.4097 24.5104 16.8857 24.5095H17.69C17.8011 24.5095 17.9077 24.5537 17.9863 24.6322C18.0648 24.7108 18.109 24.8173 18.109 24.9284C18.109 25.0395 18.0648 25.1461 17.9863 25.2247C17.9077 25.3032 17.8011 25.3474 17.69 25.3474H16.8857C15.6318 25.348 14.4293 25.8459 13.542 26.7318C12.6546 27.6177 12.1547 28.8193 12.1519 30.0732V34.3244H34.8481V30.0732C34.8467 28.8203 34.3483 27.6191 33.4624 26.7331C32.5764 25.8472 31.3752 25.3488 30.1223 25.3474H29.2602C29.1491 25.3474 29.0425 25.3032 28.9639 25.2247C28.8854 25.1461 28.8412 25.0395 28.8412 24.9284C28.8412 24.8173 28.8854 24.7108 28.9639 24.6322C29.0425 24.5537 29.1491 24.5095 29.2602 24.5095H30.1223C31.5972 24.5116 33.0111 25.0985 34.0541 26.1414C35.097 27.1843 35.6839 28.5983 35.686 30.0732V34.7433C35.686 34.8544 35.6418 34.9609 35.5633 35.0395C35.4847 35.1181 35.3781 35.1622 35.267 35.1622Z" fill="#EEF9BF"/>
<path d="M24.9001 35.1621C24.8398 35.1621 24.7802 35.1491 24.7254 35.124C24.6706 35.0989 24.6218 35.0622 24.5825 35.0165C24.5432 34.9708 24.5142 34.9171 24.4975 34.8592C24.4808 34.8013 24.4768 34.7404 24.4858 34.6808L26.1811 23.4609C26.1901 23.4015 26.2117 23.3448 26.2445 23.2945C26.2774 23.2443 26.3206 23.2016 26.3713 23.1695C26.4221 23.1374 26.4791 23.1166 26.5386 23.1085C26.5981 23.1003 26.6586 23.1051 26.7161 23.1224L29.6418 24.0042C29.7001 24.0218 29.7538 24.0518 29.7993 24.0923C29.8448 24.1327 29.8809 24.1826 29.9051 24.2384C29.9294 24.2942 29.9411 24.3547 29.9397 24.4155C29.9382 24.4764 29.9235 24.5361 29.8965 24.5907L28.7336 26.9241L29.4081 27.6811C29.4678 27.7486 29.5042 27.8337 29.5117 27.9236C29.5193 28.0135 29.4976 28.1034 29.4499 28.18L25.2561 34.9636C25.2186 35.0242 25.1662 35.0743 25.1039 35.1091C25.0416 35.1438 24.9714 35.1621 24.9001 35.1621ZM26.9377 24.0641L25.6202 32.7831L28.5748 28.0074L27.9201 27.2722C27.8643 27.2097 27.8286 27.132 27.8175 27.0491C27.8064 26.9661 27.8204 26.8817 27.8576 26.8068L28.925 24.6644L26.9377 24.0641Z" fill="#EEF9BF"/>
<path d="M22.0518 35.1622C21.9803 35.1623 21.9101 35.144 21.8477 35.1093C21.7853 35.0745 21.7328 35.0244 21.6953 34.9636L17.5002 28.1813C17.4525 28.1048 17.4309 28.0148 17.4384 27.9249C17.446 27.835 17.4823 27.75 17.5421 27.6824L18.2166 26.9254L17.0536 24.5921C17.0267 24.5375 17.012 24.4777 17.0105 24.4169C17.009 24.356 17.0208 24.2956 17.045 24.2398C17.0693 24.1839 17.1054 24.1341 17.1509 24.0936C17.1963 24.0532 17.2501 24.0231 17.3083 24.0056L20.2341 23.1237C20.2915 23.1065 20.352 23.1018 20.4114 23.11C20.4709 23.1181 20.5279 23.139 20.5785 23.1711C20.6292 23.2032 20.6724 23.2458 20.7052 23.296C20.738 23.3462 20.7596 23.4029 20.7686 23.4622L22.4648 34.6821C22.4736 34.7416 22.4695 34.8022 22.4528 34.8599C22.436 34.9176 22.4071 34.971 22.3679 35.0165C22.3288 35.0621 22.2803 35.0986 22.2257 35.1238C22.1712 35.1489 22.1118 35.162 22.0518 35.1622ZM18.377 28.0062L21.3316 32.7819L20.0141 24.0642L18.0268 24.6633L19.0938 26.8056C19.1311 26.8805 19.1452 26.9649 19.1341 27.0478C19.1231 27.1308 19.0874 27.2085 19.0318 27.271L18.377 28.0062Z" fill="#EEF9BF"/>
<path d="M23.5071 27.3514C22.6013 27.3507 21.6963 27.2959 20.7971 27.1872C20.7413 27.1821 20.6871 27.1658 20.6378 27.1394C20.5884 27.113 20.5448 27.077 20.5096 27.0334C20.4744 26.9899 20.4482 26.9397 20.4327 26.8859C20.4172 26.8321 20.4127 26.7757 20.4194 26.7201C20.426 26.6645 20.4438 26.6108 20.4716 26.5622C20.4993 26.5136 20.5366 26.471 20.5811 26.437C20.6256 26.403 20.6765 26.3783 20.7307 26.3643C20.7849 26.3504 20.8414 26.3474 20.8968 26.3556C22.6089 26.5662 24.3403 26.5662 26.0524 26.3556C26.1616 26.3438 26.2711 26.3753 26.3572 26.4434C26.4434 26.5116 26.4994 26.6108 26.5131 26.7197C26.5268 26.8287 26.4972 26.9387 26.4306 27.026C26.3641 27.1134 26.2659 27.1711 26.1572 27.1867C25.2781 27.2971 24.393 27.352 23.5071 27.3514Z" fill="#EEF9BF"/>
<path d="M26.5963 23.9422C26.5311 23.942 26.4668 23.9265 26.4086 23.897C26.3504 23.8676 26.2999 23.8249 26.2611 23.7725C25.6386 22.9309 25.5259 21.2628 25.5155 21.0755C25.5091 20.9647 25.5469 20.8558 25.6208 20.7728C25.6946 20.6899 25.7984 20.6396 25.9093 20.6332C26.0198 20.628 26.128 20.6663 26.2107 20.7399C26.2934 20.8135 26.344 20.9165 26.3516 21.0269C26.3772 21.4676 26.5322 22.7307 26.9344 23.2744C26.9803 23.3367 27.0081 23.4104 27.0147 23.4875C27.0213 23.5646 27.0065 23.642 26.9718 23.7112C26.9371 23.7803 26.8839 23.8385 26.8181 23.8793C26.7524 23.9201 26.6766 23.9419 26.5992 23.9422H26.5963Z" fill="#EEF9BF"/>
<path d="M20.3557 23.9423C20.2783 23.942 20.2025 23.9202 20.1368 23.8794C20.071 23.8386 20.0178 23.7804 19.9831 23.7113C19.9484 23.6421 19.9335 23.5647 19.9401 23.4876C19.9467 23.4105 19.9746 23.3368 20.0205 23.2745C20.4235 22.7299 20.5781 21.4673 20.6037 21.027C20.6068 20.972 20.6208 20.9182 20.6448 20.8686C20.6688 20.819 20.7024 20.7746 20.7435 20.7379C20.7847 20.7013 20.8327 20.6731 20.8847 20.655C20.9368 20.6369 20.9919 20.6292 21.0469 20.6324C21.1019 20.6356 21.1557 20.6496 21.2053 20.6736C21.2549 20.6976 21.2993 20.7311 21.336 20.7723C21.3726 20.8135 21.4008 20.8614 21.4189 20.9135C21.437 20.9655 21.4447 21.0206 21.4415 21.0756C21.431 21.2629 21.3158 22.931 20.6958 23.7726C20.6565 23.8257 20.6052 23.8688 20.5461 23.8983C20.487 23.9278 20.4217 23.9428 20.3557 23.9423Z" fill="#EEF9BF"/>
<path d="M31.9434 29.2906C31.8343 29.2907 31.7296 29.2482 31.6513 29.1722C31.5731 29.0963 31.5276 28.9928 31.5244 28.8838C31.4461 26.1558 30.4088 25.2975 30.3988 25.2891C30.3122 25.2204 30.2561 25.1204 30.2425 25.0108C30.2288 24.9011 30.2588 24.7904 30.3259 24.7026C30.3925 24.6155 30.4908 24.5582 30.5995 24.5431C30.7081 24.5281 30.8183 24.5565 30.9061 24.6222C30.9614 24.6641 32.2705 25.6808 32.3623 28.8595C32.3654 28.9705 32.3244 29.0782 32.2482 29.159C32.172 29.2397 32.0669 29.2869 31.9559 29.2902L31.9434 29.2906Z" fill="#EEF9BF"/>
<path d="M31.9455 31.7639C31.6179 31.764 31.2977 31.6669 31.0253 31.485C30.753 31.3031 30.5406 31.0445 30.4152 30.7419C30.2898 30.4393 30.257 30.1063 30.3208 29.7851C30.3847 29.4638 30.5424 29.1687 30.7739 28.9371C31.0055 28.7054 31.3006 28.5477 31.6218 28.4838C31.9431 28.4198 32.2761 28.4526 32.5787 28.5779C32.8813 28.7032 33.1399 28.9155 33.3219 29.1878C33.5039 29.4602 33.601 29.7804 33.601 30.1079C33.6006 30.5469 33.426 30.9678 33.1157 31.2782C32.8053 31.5887 32.3845 31.7633 31.9455 31.7639ZM31.9455 29.2897C31.7836 29.2897 31.6254 29.3376 31.4908 29.4274C31.3562 29.5173 31.2513 29.645 31.1893 29.7945C31.1273 29.944 31.1111 30.1085 31.1426 30.2673C31.1741 30.426 31.252 30.5718 31.3664 30.6863C31.4808 30.8007 31.6266 30.8787 31.7853 30.9103C31.944 30.9419 32.1085 30.9257 32.258 30.8638C32.4076 30.8019 32.5354 30.697 32.6253 30.5625C32.7152 30.4279 32.7632 30.2697 32.7632 30.1079C32.763 29.891 32.6768 29.6831 32.5235 29.5298C32.3702 29.3764 32.1623 29.2901 31.9455 29.2897Z" fill="#EEF9BF"/>
<path d="M14.7371 29.2905C14.6309 29.2908 14.5286 29.2508 14.4509 29.1785C14.3731 29.1063 14.3257 29.0072 14.3181 28.9013C14.0898 25.6861 15.8614 24.6585 15.9368 24.6162C16.0336 24.5616 16.1481 24.5477 16.2552 24.5775C16.3622 24.6073 16.453 24.6784 16.5076 24.7752C16.5622 24.872 16.5762 24.9865 16.5463 25.0935C16.5165 25.2006 16.4454 25.2914 16.3486 25.346C16.285 25.3837 14.9662 26.1976 15.1535 28.8423C15.1613 28.9531 15.1248 29.0625 15.052 29.1464C14.9791 29.2303 14.876 29.2818 14.7651 29.2897L14.7371 29.2905Z" fill="#EEF9BF"/>
<path d="M13.8896 32.6449C13.8248 32.6452 13.7608 32.6304 13.7026 32.6018C13.6444 32.5732 13.5937 32.5314 13.5545 32.4798C13.35 32.2113 13.1993 31.9057 13.1108 31.58C12.9163 30.9455 12.9801 30.26 13.2884 29.6723C13.5966 29.0846 14.1242 28.6423 14.7567 28.4415C15.0568 28.3571 15.3706 28.3334 15.6799 28.3716C15.9891 28.4099 16.2877 28.5094 16.5581 28.6643C17.032 28.9381 17.411 29.35 17.6446 29.845C17.8781 30.3399 17.9551 30.8944 17.8651 31.4342C17.8469 31.5438 17.7859 31.6417 17.6955 31.7063C17.6051 31.7709 17.4928 31.797 17.3832 31.7788C17.2736 31.7606 17.1757 31.6995 17.1111 31.6092C17.0464 31.5188 17.0204 31.4064 17.0386 31.2968C17.1001 30.9269 17.0479 30.5471 16.8888 30.2075C16.7298 29.8679 16.4715 29.5846 16.148 29.3949C15.9736 29.2942 15.7808 29.2293 15.581 29.2039C15.3812 29.1785 15.1783 29.1932 14.9842 29.2471C14.5645 29.3874 14.217 29.6877 14.0171 30.0826C13.8173 30.4776 13.7813 30.9354 13.9168 31.3567C13.9774 31.5797 14.0807 31.7889 14.221 31.9725C14.2681 32.0346 14.297 32.1086 14.3044 32.1863C14.3118 32.2639 14.2974 32.342 14.2628 32.4119C14.2282 32.4818 14.1748 32.5406 14.1085 32.5818C14.0423 32.6229 13.9659 32.6448 13.8879 32.6449H13.8896Z" fill="#EEF9BF"/>
<path d="M17.4575 31.7853C17.4411 31.7853 17.4244 31.7853 17.4076 31.7828L16.9355 31.727C16.8808 31.7205 16.828 31.7034 16.78 31.6764C16.732 31.6495 16.6897 31.6134 16.6557 31.5702C16.6216 31.5269 16.5964 31.4774 16.5815 31.4244C16.5666 31.3715 16.5622 31.3161 16.5687 31.2614C16.5752 31.2068 16.5924 31.1539 16.6193 31.1059C16.6462 31.0579 16.6823 31.0157 16.7256 30.9816C16.8129 30.9128 16.924 30.8815 17.0344 30.8947L17.5065 30.9508C17.6125 30.9634 17.7097 31.016 17.7782 31.0979C17.8468 31.1798 17.8815 31.2847 17.8752 31.3913C17.8689 31.4979 17.8222 31.5981 17.7446 31.6714C17.6669 31.7447 17.5642 31.7856 17.4575 31.7857V31.7853Z" fill="#EEF9BF"/>
<path d="M13.8896 32.6487C13.7912 32.6488 13.696 32.6143 13.6205 32.5513C13.545 32.4882 13.4941 32.4006 13.4767 32.3038C13.4593 32.207 13.4765 32.1071 13.5254 32.0218C13.5742 31.9364 13.6515 31.8709 13.7438 31.8368L14.2465 31.6512C14.2981 31.632 14.3529 31.6231 14.408 31.625C14.463 31.627 14.5171 31.6397 14.5672 31.6626C14.6172 31.6854 14.6623 31.7179 14.6999 31.7582C14.7374 31.7985 14.7666 31.8458 14.7859 31.8973C14.8051 31.9489 14.814 32.0038 14.8121 32.0588C14.8101 32.1138 14.7974 32.1679 14.7745 32.218C14.7517 32.2681 14.7192 32.3132 14.6789 32.3507C14.6386 32.3882 14.5913 32.4175 14.5397 32.4367L14.037 32.6227C13.9899 32.6402 13.9399 32.6489 13.8896 32.6487Z" fill="#EEF9BF"/>
</svg>
