<svg width="45" height="45" viewBox="0 0 45 45" fill="none" xmlns="http://www.w3.org/2000/svg">
<g clip-path="url(#clip0_29_105)">
<path d="M20.625 13.125H31.875V16.875H20.625V13.125ZM20.625 20.625H31.875V24.375H20.625V20.625ZM20.625 28.125H31.875V31.875H20.625V28.125ZM13.125 13.125H16.875V16.875H13.125V13.125ZM13.125 20.625H16.875V24.375H13.125V20.625ZM13.125 28.125H16.875V31.875H13.125V28.125ZM37.6875 5.625H7.3125C6.375 5.625 5.625 6.375 5.625 7.3125V37.6875C5.625 38.4375 6.375 39.375 7.3125 39.375H37.6875C38.4375 39.375 39.375 38.4375 39.375 37.6875V7.3125C39.375 6.375 38.4375 5.625 37.6875 5.625ZM35.625 35.625H9.375V9.375H35.625V35.625Z" fill="#EEF9BF"/>
</g>
<defs>
<clipPath id="clip0_29_105">
<rect width="45" height="45" fill="white"/>
</clipPath>
</defs>
</svg>
