<svg width="45" height="45" viewBox="0 0 45 45" fill="none" xmlns="http://www.w3.org/2000/svg">
<g clip-path="url(#clip0_29_102)">
<path d="M41.5221 3.47717C39.2813 1.23493 36.3002 0 33.1296 0C29.9587 0 26.9786 1.23493 24.7367 3.47717L14.1068 14.1068L3.47649 24.7378C1.23493 26.98 0 29.9611 0 33.131C0 36.3009 1.23493 39.282 3.47649 41.5228C5.71735 43.7651 8.69843 45 11.869 45C15.0396 45 18.02 43.7651 20.2615 41.5228L30.8918 30.8932L41.5221 20.2622C43.7637 18.02 44.9983 15.0389 44.9983 11.869C44.9983 8.69911 43.7637 5.71804 41.5221 3.47717ZM18.0238 39.285C16.3792 40.9292 14.1933 41.8353 11.869 41.8353C9.54369 41.8353 7.35844 40.9296 5.71426 39.285C4.07009 37.6405 3.16509 35.4556 3.16509 33.1313C3.16509 30.807 4.07078 28.6201 5.71426 26.9759L15.2257 17.4638L27.5352 29.7747L18.0238 39.285ZM39.2844 18.0244L29.7729 27.5365L17.4635 15.2257L26.9749 5.71495C28.619 4.07078 30.805 3.16475 33.1296 3.16475C35.4546 3.16475 37.6398 4.07043 39.284 5.71495C40.9282 7.35947 41.8332 9.54437 41.8332 11.8687C41.8332 14.193 40.9278 16.3799 39.2844 18.0244Z" fill="#EEF9BF"/>
<path d="M37.3617 10.6712C36.8571 10.6712 36.361 10.4301 36.0544 9.98348C35.3138 8.90167 34.0923 8.25726 32.7856 8.25726C31.7285 8.25726 30.7356 8.66821 29.9875 9.41631C29.3692 10.0343 28.3677 10.0343 27.7497 9.41631C27.1318 8.79799 27.1318 7.79652 27.7497 7.17854C29.0952 5.83237 30.8832 5.09216 32.7856 5.09216C35.137 5.09216 37.3353 6.25122 38.666 8.19408C39.1597 8.91541 38.9761 9.90005 38.2544 10.3948C37.9814 10.5816 37.6701 10.6712 37.3617 10.6712Z" fill="#EEF9BF"/>
</g>
<defs>
<clipPath id="clip0_29_102">
<rect width="45" height="45" fill="white"/>
</clipPath>
</defs>
</svg>
