<svg width="45" height="45" viewBox="0 0 45 45" fill="none" xmlns="http://www.w3.org/2000/svg">
<g clip-path="url(#clip0_27_69)">
<path d="M44.5719 17.8301C44.5719 13.2468 40.8426 9.51749 36.2588 9.51749C35.2395 9.51749 34.2664 9.71085 33.3632 10.0485C31.0254 7.2467 27.8641 5.35535 24.3724 4.60765V3.8206C24.3724 1.71402 22.6584 0 20.5513 0C18.4447 0 16.7307 1.71402 16.7307 3.8206V4.83113C9.89161 6.7016 4.84379 12.9533 4.84379 20.3773V33.113H4.41917C2.31259 33.113 0.598572 34.827 0.598572 36.9341C0.598572 39.0407 2.31259 40.7547 4.41917 40.7547H16.0345C16.6092 43.2213 18.7901 44.9999 21.4005 44.9999C24.0109 44.9999 26.1923 43.2213 26.7666 40.7547H37.5327C39.6397 40.7547 41.3533 39.0407 41.3533 36.9341C41.3533 34.827 39.6397 33.113 37.5327 33.113H37.108V26.1C41.2945 25.6729 44.5719 22.1273 44.5719 17.8301ZM42.8739 17.8301C42.8739 21.4778 39.9064 24.4447 36.2588 24.4447C32.6116 24.4447 29.6442 21.4778 29.6442 17.8301C29.6442 14.1825 32.6116 11.2155 36.2588 11.2155C39.9064 11.2155 42.8739 14.1825 42.8739 17.8301ZM18.4287 3.8206C18.4287 2.65022 19.3804 1.69799 20.5513 1.69799C21.7222 1.69799 22.6739 2.65022 22.6739 3.8206V4.33656C22.1132 4.27777 21.5468 4.24522 20.9759 4.24522C20.1072 4.24522 19.2609 4.33364 18.4287 4.46627V3.8206ZM21.4005 43.3019C19.7365 43.3019 18.3339 42.2525 17.8092 40.7547H24.9918C24.4671 42.2525 23.0645 43.3019 21.4005 43.3019ZM37.5327 34.8115C38.7035 34.8115 39.6553 35.7637 39.6553 36.9341C39.6553 38.1045 38.7035 39.0567 37.5327 39.0567H4.41917C3.24831 39.0567 2.29656 38.1045 2.29656 36.9341C2.29656 35.7637 3.24831 34.8115 4.41917 34.8115H5.69303C6.16234 34.8115 6.54178 34.4311 6.54178 33.9622V20.3773C6.54178 12.4184 13.017 5.94321 20.9759 5.94321C25.1385 5.94321 29.0374 7.72962 31.7818 10.8375C29.4785 12.3169 27.9457 14.8957 27.9457 17.8301C27.9457 22.1273 31.2236 25.6729 35.4096 26.1V33.9622C35.4096 34.4311 35.7895 34.8115 36.2588 34.8115H37.5327Z" fill="#EEF9BF"/>
<path d="M33.9871 20.9506C34.2042 20.9506 34.4219 20.8676 34.5875 20.7019L36.8593 18.4306C37.0187 18.2713 37.1081 18.0551 37.1081 17.8301V14.5848C37.1081 14.1159 36.7281 13.736 36.2588 13.736C35.7895 13.736 35.4101 14.1159 35.4101 14.5848V17.4789L33.3871 19.5014C33.0552 19.8327 33.0552 20.3705 33.3871 20.7019C33.5527 20.868 33.7699 20.9506 33.9871 20.9506Z" fill="#EEF9BF"/>
<path d="M23.5232 33.113H21.8252C21.3559 33.113 20.976 33.4934 20.976 33.9623C20.976 34.4311 21.3559 34.8115 21.8252 34.8115H23.5232C23.9925 34.8115 24.3724 34.4311 24.3724 33.9623C24.3724 33.4934 23.9925 33.113 23.5232 33.113Z" fill="#EEF9BF"/>
<path d="M18.7115 33.113H9.93829C9.46897 33.113 9.08905 33.4934 9.08905 33.9623C9.08905 34.4311 9.46897 34.8115 9.93829 34.8115H18.7115C19.1808 34.8115 19.5607 34.4311 19.5607 33.9623C19.5607 33.4934 19.1808 33.113 18.7115 33.113Z" fill="#EEF9BF"/>
</g>
<defs>
<clipPath id="clip0_27_69">
<rect width="45" height="45" fill="white"/>
</clipPath>
</defs>
</svg>
