<svg width="45" height="45" viewBox="0 0 45 45" fill="none" xmlns="http://www.w3.org/2000/svg">
<path d="M27.8226 20.3818H17.1773C16.9346 20.3818 16.7379 20.1851 16.7379 19.9423C16.7379 19.6996 16.9346 19.5029 17.1773 19.5029H27.8226C28.0654 19.5029 28.2621 19.6996 28.2621 19.9423C28.2621 20.1851 28.0654 20.3818 27.8226 20.3818Z" fill="#EEF9BF"/>
<path d="M27.8226 30.6429H17.1773C16.9346 30.6429 16.7379 30.4462 16.7379 30.2034C16.7379 29.9607 16.9346 29.764 17.1773 29.764H27.8226C28.0654 29.764 28.2621 29.9607 28.2621 30.2034C28.2621 30.4462 28.0654 30.6429 27.8226 30.6429Z" fill="#EEF9BF"/>
<path d="M20.457 15.9354C20.2143 15.9354 20.0176 15.7387 20.0176 15.496V12.829C20.0176 12.5863 20.2143 12.3896 20.457 12.3896C20.6998 12.3896 20.8965 12.5863 20.8965 12.829V15.496C20.8965 15.7387 20.6998 15.9354 20.457 15.9354Z" fill="#EEF9BF"/>
<path d="M22.5 15.9354C22.2572 15.9354 22.0605 15.7387 22.0605 15.496V12.829C22.0605 12.5863 22.2572 12.3896 22.5 12.3896C22.7428 12.3896 22.9395 12.5863 22.9395 12.829V15.496C22.9395 15.7387 22.7428 15.9354 22.5 15.9354Z" fill="#EEF9BF"/>
<path d="M24.5428 15.9354C24.3001 15.9354 24.1034 15.7387 24.1034 15.496V12.829C24.1034 12.5863 24.3001 12.3896 24.5428 12.3896C24.7856 12.3896 24.9823 12.5863 24.9823 12.829V15.496C24.9823 15.7387 24.7854 15.9354 24.5428 15.9354Z" fill="#EEF9BF"/>
<path d="M23.4274 28.6449H21.5724C21.3296 28.6449 21.1329 28.4482 21.1329 28.2055V26.4609H19.3881C19.1454 26.4609 18.9487 26.2642 18.9487 26.0214V24.1664C18.9487 23.9236 19.1454 23.7269 19.3881 23.7269H21.1329V21.9821C21.1329 21.7394 21.3296 21.5427 21.5724 21.5427H23.4274C23.6702 21.5427 23.8669 21.7394 23.8669 21.9821V23.7269H25.6117C25.8544 23.7269 26.0511 23.9236 26.0511 24.1664V26.0214C26.0511 26.2642 25.8544 26.4609 25.6117 26.4609H23.8669V28.2055C23.8669 28.4482 23.6702 28.6449 23.4274 28.6449ZM22.012 27.766H22.9881V26.0214C22.9881 25.7787 23.1848 25.582 23.4276 25.582H25.1724V24.6058H23.4276C23.1848 24.6058 22.9881 24.4091 22.9881 24.1664V22.4216H22.012V24.1664C22.012 24.4091 21.8153 24.6058 21.5726 24.6058H19.8278V25.582H21.5726C21.8153 25.582 22.012 25.7787 22.012 26.0214V27.766Z" fill="#EEF9BF"/>
<path d="M8.66899 25.6416C8.4628 25.6416 8.27893 25.4957 8.23815 25.2858C8.06114 24.3742 7.97131 23.4369 7.97131 22.5C7.97131 14.4888 14.4889 7.97133 22.5 7.97133C27.334 7.97133 31.8377 10.3658 34.5473 14.3766C34.6832 14.5777 34.6303 14.8509 34.4292 14.9868C34.2283 15.1225 33.9549 15.0697 33.8191 14.8686C31.2729 11.1001 27.0415 8.85023 22.5 8.85023C14.9734 8.85023 8.85022 14.9734 8.85022 22.5C8.85022 23.3808 8.93459 24.2617 9.10088 25.1183C9.14711 25.3564 8.99155 25.5871 8.75319 25.6335C8.72506 25.6389 8.69676 25.6416 8.66899 25.6416Z" fill="#EEF9BF"/>
<path d="M22.5 37.0287C17.8024 37.0287 13.3715 34.7393 10.6476 30.9046C10.507 30.7069 10.5535 30.4325 10.7513 30.2919C10.9492 30.1514 11.2236 30.1976 11.3641 30.3956C13.9236 33.9987 18.0865 36.1498 22.5 36.1498C30.0266 36.1498 36.1498 30.0266 36.1498 22.5C36.1498 21.7484 36.0882 20.9946 35.9668 20.2597C35.9272 20.0203 36.0893 19.794 36.3289 19.7545C36.5685 19.7158 36.7945 19.877 36.8341 20.1166C36.9631 20.8986 37.0287 21.7007 37.0287 22.5002C37.0287 30.5112 30.5112 37.0287 22.5 37.0287Z" fill="#EEF9BF"/>
<path d="M22.5 6.34463C22.2572 6.34463 22.0605 6.14793 22.0605 5.90518V2.57325C22.0605 2.33049 22.2572 2.13379 22.5 2.13379C22.7428 2.13379 22.9395 2.33049 22.9395 2.57325V5.90518C22.9395 6.14793 22.7428 6.34463 22.5 6.34463Z" fill="#EEF9BF"/>
<path d="M22.5 11.186C22.2572 11.186 22.0605 10.9893 22.0605 10.7465V7.66298C22.0605 7.42023 22.2572 7.22353 22.5 7.22353C22.7428 7.22353 22.9395 7.42023 22.9395 7.66298V10.7465C22.9395 10.9893 22.7428 11.186 22.5 11.186Z" fill="#EEF9BF"/>
<path d="M22.5 37.7764C22.2572 37.7764 22.0605 37.5797 22.0605 37.337V34.2534C22.0605 34.0107 22.2572 33.814 22.5 33.814C22.7428 33.814 22.9395 34.0107 22.9395 34.2534V37.337C22.9395 37.5797 22.7428 37.7764 22.5 37.7764Z" fill="#EEF9BF"/>
<path d="M22.5 42.8662C22.2572 42.8662 22.0605 42.6695 22.0605 42.4267V39.0948C22.0605 38.8521 22.2572 38.6554 22.5 38.6554C22.7428 38.6554 22.9395 38.8521 22.9395 39.0948V42.4267C22.9395 42.6695 22.7428 42.8662 22.5 42.8662Z" fill="#EEF9BF"/>
<path d="M42.4267 22.9395H34.9177C34.675 22.9395 34.4783 22.7428 34.4783 22.5C34.4783 22.2572 34.675 22.0605 34.9177 22.0605H42.4267C42.6695 22.0605 42.8662 22.2572 42.8662 22.5C42.8662 22.7428 42.6695 22.9395 42.4267 22.9395Z" fill="#EEF9BF"/>
<path d="M33.1599 22.9395H30.7378C30.495 22.9395 30.2983 22.7428 30.2983 22.5C30.2983 22.2572 30.495 22.0605 30.7378 22.0605H33.1599C33.4026 22.0605 33.5993 22.2572 33.5993 22.5C33.5993 22.7428 33.4026 22.9395 33.1599 22.9395Z" fill="#EEF9BF"/>
<path d="M14.2622 22.9395H11.8401C11.5973 22.9395 11.4006 22.7428 11.4006 22.5C11.4006 22.2572 11.5973 22.0605 11.8401 22.0605H14.2622C14.5049 22.0605 14.7016 22.2572 14.7016 22.5C14.7016 22.7428 14.5049 22.9395 14.2622 22.9395Z" fill="#EEF9BF"/>
<path d="M10.0823 22.9395H2.57324C2.33049 22.9395 2.13379 22.7428 2.13379 22.5C2.13379 22.2572 2.33049 22.0605 2.57324 22.0605H10.0823C10.325 22.0605 10.5217 22.2572 10.5217 22.5C10.5217 22.7428 10.325 22.9395 10.0823 22.9395Z" fill="#EEF9BF"/>
<path d="M29.504 15.9354C29.3915 15.9354 29.279 15.8925 29.1933 15.8068C29.0215 15.6352 29.0215 15.3569 29.1933 15.1854L36.2795 8.0991C36.4511 7.92737 36.7295 7.92737 36.9009 8.0991C37.0727 8.27067 37.0727 8.54893 36.9009 8.72049L29.8146 15.8068C29.729 15.8925 29.6165 15.9354 29.504 15.9354Z" fill="#EEF9BF"/>
<path d="M8.40956 37.0299C8.29706 37.0299 8.18456 36.987 8.09877 36.9012C7.92704 36.7296 7.92704 36.4514 8.09877 36.2798L13.8781 30.5005C14.0497 30.3288 14.3281 30.3288 14.4995 30.5005C14.6712 30.6721 14.6712 30.9503 14.4995 31.1219L8.72016 36.9012C8.63456 36.987 8.52206 37.0299 8.40956 37.0299Z" fill="#EEF9BF"/>
<path d="M36.5904 37.0299C36.4779 37.0299 36.3654 36.987 36.2796 36.9012L30.5003 31.1219C30.3285 30.9503 30.3285 30.6721 30.5003 30.5005C30.6718 30.3288 30.9503 30.3288 31.1217 30.5005L36.901 36.2798C37.0727 36.4514 37.0727 36.7296 36.901 36.9012C36.8152 36.987 36.7027 37.0299 36.5904 37.0299Z" fill="#EEF9BF"/>
<path d="M15.4959 15.9354C15.3834 15.9354 15.2709 15.8926 15.1852 15.8068L8.0989 8.72033C7.92716 8.54877 7.92716 8.2705 8.0989 8.09894C8.27046 7.9272 8.5489 7.9272 8.72028 8.09894L15.8066 15.1852C15.9783 15.3568 15.9783 15.635 15.8066 15.8066C15.7209 15.8926 15.6083 15.9354 15.4959 15.9354Z" fill="#EEF9BF"/>
<path d="M37.7764 17.3232H35.4463C35.2035 17.3232 35.0068 17.1265 35.0068 16.8838C35.0068 16.641 35.2035 16.4443 35.4463 16.4443H37.7764C38.0192 16.4443 38.2159 16.641 38.2159 16.8838C38.2159 17.1265 38.0192 17.3232 37.7764 17.3232Z" fill="#EEF9BF"/>
<path d="M9.71767 28.893H7.38751C7.14476 28.893 6.94806 28.6963 6.94806 28.4535C6.94806 28.2108 7.14476 28.0141 7.38751 28.0141H9.71767C9.96042 28.0141 10.1571 28.2108 10.1571 28.4535C10.1571 28.6963 9.96042 28.893 9.71767 28.893Z" fill="#EEF9BF"/>
<path d="M16.3533 6.12666H14.6042C14.3615 6.12666 14.1648 5.92996 14.1648 5.68721C14.1648 5.44445 14.3615 5.24775 14.6042 5.24775H16.3533C16.596 5.24775 16.7927 5.44445 16.7927 5.68721C16.7927 5.92996 16.596 6.12666 16.3533 6.12666Z" fill="#EEF9BF"/>
<path d="M28.2621 31.1317V19.199C28.2621 18.097 27.3656 17.2007 26.2638 17.2007H26.1972V15.9354H26.484C26.7268 15.9354 26.9235 15.7387 26.9235 15.496V12.8299C26.9235 12.5871 26.7268 12.3904 26.484 12.3904H18.5159C18.2731 12.3904 18.0764 12.5871 18.0764 12.8299V15.496C18.0764 15.7387 18.2731 15.9354 18.5159 15.9354H18.8028V17.2007H18.7361C17.6343 17.2007 16.7379 18.0972 16.7379 19.199V31.1317C16.7379 31.9472 17.4011 32.6104 18.2165 32.6104H26.7834C27.5987 32.6104 28.2621 31.9472 28.2621 31.1317ZM18.9553 13.2693H26.0446V15.0565H18.9553V13.2693ZM19.6817 15.9354H25.3181V17.2007H19.6817V15.9354ZM27.3832 31.1317C27.3832 31.4624 27.1142 31.7315 26.7834 31.7315H18.2165C17.8859 31.7315 17.6168 31.4624 17.6168 31.1317V19.199C17.6168 18.5818 18.1188 18.0796 18.7361 18.0796H26.2638C26.881 18.0796 27.3832 18.5818 27.3832 19.199V31.1317Z" fill="#EEF9BF"/>
<path d="M36.5905 13.2312C34.5764 13.2312 32.9377 14.8698 32.9377 16.8838C32.9377 18.8979 34.5764 20.5365 36.5905 20.5365C38.6046 20.5365 40.243 18.8979 40.243 16.8838C40.243 14.8697 38.6044 13.2312 36.5905 13.2312ZM36.5905 19.6576C35.061 19.6576 33.8167 18.4132 33.8167 16.8838C33.8167 15.3543 35.061 14.1101 36.5905 14.1101C38.12 14.1101 39.3641 15.3545 39.3641 16.8838C39.3641 18.4132 38.1198 19.6576 36.5905 19.6576Z" fill="#EEF9BF"/>
<path d="M8.53152 24.8009C6.51742 24.8009 4.87897 26.4396 4.87897 28.4535C4.87897 30.4676 6.5176 32.1062 8.53152 32.1062C10.5456 32.1062 12.1843 30.4676 12.1843 28.4535C12.1843 26.4396 10.5456 24.8009 8.53152 24.8009ZM8.53152 31.2273C7.00205 31.2273 5.75787 29.983 5.75787 28.4535C5.75787 26.924 7.00223 25.6798 8.53152 25.6798C10.061 25.6798 11.3054 26.9242 11.3054 28.4535C11.3054 29.983 10.061 31.2273 8.53152 31.2273Z" fill="#EEF9BF"/>
<path d="M18.3143 5.68719C18.3143 4.11501 17.0353 2.83585 15.4629 2.83585C13.8906 2.83585 12.6118 4.11501 12.6118 5.68719C12.6118 7.25938 13.8907 8.53854 15.4631 8.53854C17.0355 8.53854 18.3143 7.25938 18.3143 5.68719ZM15.4629 7.65964C14.3754 7.65964 13.4905 6.77475 13.4905 5.68719C13.4905 4.59964 14.3754 3.71475 15.4629 3.71475C16.5505 3.71475 17.4354 4.59964 17.4354 5.68719C17.4354 6.77475 16.5505 7.65964 15.4629 7.65964Z" fill="#EEF9BF"/>
<path d="M30.1111 36.4614C28.5389 36.4614 27.2598 37.7404 27.2598 39.3127C27.2598 40.8851 28.5387 42.1641 30.1111 42.1641C31.6835 42.1641 32.9625 40.8851 32.9625 39.3127C32.9625 37.7404 31.6835 36.4614 30.1111 36.4614ZM30.1111 41.2852C29.0236 41.2852 28.1387 40.4003 28.1387 39.3127C28.1387 38.2252 29.0236 37.3403 30.1111 37.3403C31.1987 37.3403 32.0836 38.2252 32.0836 39.3127C32.0836 40.4003 31.1987 41.2852 30.1111 41.2852Z" fill="#EEF9BF"/>
<path d="M31.0015 39.7522H29.2524C29.0097 39.7522 28.813 39.5555 28.813 39.3128C28.813 39.07 29.0097 38.8733 29.2524 38.8733H31.0015C31.2442 38.8733 31.4409 39.07 31.4409 39.3128C31.4409 39.5555 31.2442 39.7522 31.0015 39.7522Z" fill="#EEF9BF"/>
</svg>
